<?xml version="1.0" encoding="utf-8"?>
<!-- Generator: Adobe Illustrator 19.2.0, SVG Export Plug-In . SVG Version: 6.00 Build 0)  -->
<svg version="1.1" id="Layer_1" xmlns="http://www.w3.org/2000/svg" xmlns:xlink="http://www.w3.org/1999/xlink" x="0px" y="0px"
	 width="auto" height="43px" viewBox="0 0 434.7 59.2" enable-background="new 0 0 434.7 59.2" xml:space="preserve">
<path fill="#d6dce2" d="M29.3,42.8H12.2l-2.9,5.8H0l16.1-30.8h9.3l16.1,30.8h-9.3L29.3,42.8z M15.1,36.8h11.2l-5.6-11.3L15.1,36.8z"
	/>
<path fill="#d6dce2" d="M65.8,17.1c3,0,5.8,0.3,8.4,0.8c2.6,0.5,5,1.2,7.1,2v7.5c-0.9-0.5-1.8-0.9-2.9-1.4c-1.1-0.4-2.2-0.8-3.5-1.2
	c-1.3-0.3-2.6-0.6-4-0.8c-1.4-0.2-2.9-0.3-4.5-0.3c-2,0-3.7,0.1-5.1,0.4c-1.5,0.3-2.7,0.7-3.8,1.1c-1,0.5-1.9,1-2.6,1.7
	c-0.7,0.6-1.2,1.3-1.6,2c-0.4,0.7-0.7,1.4-0.8,2.2c-0.1,0.7-0.2,1.5-0.2,2.2c0,0.6,0.1,1.3,0.2,2c0.1,0.7,0.4,1.4,0.7,2.1
	c0.4,0.7,0.8,1.4,1.5,2.1c0.6,0.7,1.4,1.2,2.5,1.7c1,0.5,2.2,0.9,3.6,1.2c1.4,0.3,3.1,0.5,5.1,0.5c1,0,1.8,0,2.6-0.1
	c0.7-0.1,1.4-0.1,2-0.2c0.6-0.1,1.2-0.2,1.7-0.4c0.5-0.1,1.1-0.3,1.6-0.5V38h-9.3v-6.7h17.6V47c-1.1,0.4-2.3,0.7-3.7,1
	c-1.4,0.3-2.8,0.6-4.2,0.8c-1.5,0.2-2.9,0.4-4.4,0.5c-1.5,0.1-2.8,0.2-4.1,0.2c-2,0-3.9-0.1-5.8-0.4c-1.9-0.3-3.6-0.7-5.2-1.2
	c-1.6-0.6-3.1-1.3-4.4-2.1c-1.3-0.9-2.4-1.9-3.4-3.1c-0.9-1.2-1.7-2.6-2.2-4.1c-0.5-1.5-0.8-3.3-0.8-5.2c0-1.9,0.3-3.6,0.8-5.2
	c0.5-1.6,1.3-2.9,2.2-4.1c1-1.2,2.1-2.2,3.5-3.1c1.4-0.9,2.8-1.6,4.5-2.1c1.6-0.6,3.4-1,5.2-1.2C62,17.2,63.9,17.1,65.8,17.1"/>
<rect x="90.6" y="17.9" fill="#d6dce2" width="8.3" height="30.8"/>
<path fill="#d6dce2" d="M116.4,35.4c0,1.3,0.1,2.3,0.4,3.1c0.2,0.8,0.6,1.5,1.2,1.9c0.5,0.5,1.2,0.8,2.1,1c0.9,0.2,1.9,0.3,3.2,0.3
	h15.8v6.8h-17.5c-2.4,0-4.5-0.2-6.2-0.6c-1.7-0.4-3.1-1-4.2-1.8c-1.1-0.8-1.9-1.9-2.3-3.1c-0.5-1.3-0.7-2.8-0.7-4.5V17.9h8.3V35.4z"
	/>
<path fill="#d6dce2" d="M179.2,47.1c-2.5,0.8-5,1.4-7.6,1.8c-2.5,0.4-5.1,0.5-7.7,0.5c-3.4,0-6.3-0.4-9-1.1
	c-2.6-0.7-4.8-1.8-6.6-3.1c-1.8-1.4-3.2-3.1-4.1-5c-0.9-2-1.4-4.2-1.4-6.7c0-2.3,0.5-4.5,1.4-6.5c0.9-2,2.3-3.7,4-5.2
	c1.7-1.5,3.8-2.6,6.3-3.4c2.5-0.8,5.2-1.2,8.2-1.2c2.8,0,5.3,0.4,7.7,1.1c2.3,0.8,4.3,1.9,6,3.3c1.7,1.5,3,3.3,3.9,5.5
	c0.9,2.2,1.4,4.7,1.4,7.5v2.1h-30.3c0.3,1,0.7,1.9,1.3,2.7c0.6,0.8,1.5,1.5,2.5,2.1c1.1,0.6,2.4,1,3.9,1.3c1.5,0.3,3.4,0.5,5.5,0.5
	c1.5,0,3-0.1,4.5-0.3c1.5-0.2,2.8-0.4,4.1-0.7c1.3-0.3,2.4-0.6,3.4-1c1-0.4,1.8-0.7,2.5-1.1V47.1z M173.4,30.5
	c-0.1-0.8-0.3-1.5-0.7-2.4c-0.4-0.8-1-1.5-1.8-2.2c-0.8-0.7-1.9-1.2-3.2-1.6c-1.3-0.4-3-0.6-5-0.6c-1.9,0-3.5,0.2-4.8,0.7
	c-1.4,0.5-2.5,1-3.4,1.7c-0.9,0.7-1.6,1.4-2.1,2.2c-0.5,0.8-0.8,1.5-1,2.2H173.4z"/>
<polygon fill="#d6dce2" points="290.2,17.9 298,39.2 306.5,17.9 315.2,17.9 302.8,48.6 293.6,48.6 285.5,27.9 277.5,48.6 
	268.3,48.6 255.9,17.9 264.6,17.9 272.9,38.8 280.9,17.9 "/>
<path fill="#d6dce2" d="M359.6,33.3c0,2.6-0.5,5-1.5,7c-1,2-2.4,3.7-4.2,5.1c-1.8,1.4-4,2.4-6.6,3.1c-2.6,0.7-5.5,1-8.7,1
	c-3.2,0-6.1-0.3-8.7-1c-2.6-0.7-4.8-1.7-6.6-3.1c-1.8-1.4-3.2-3-4.2-5.1c-1-2-1.5-4.4-1.5-7c0-2.6,0.5-5,1.5-7c1-2,2.4-3.7,4.2-5.1
	c1.8-1.4,4-2.4,6.6-3.1c2.6-0.7,5.5-1,8.7-1c3.2,0,6.1,0.3,8.7,1c2.6,0.7,4.8,1.7,6.6,3.1c1.8,1.4,3.2,3,4.2,5.1
	C359.1,28.3,359.6,30.6,359.6,33.3 M351.2,33.3c0-1.1-0.2-2.3-0.5-3.4c-0.4-1.1-1-2.2-1.9-3.1c-0.9-0.9-2.2-1.6-3.8-2.2
	c-1.6-0.6-3.7-0.9-6.2-0.9c-1.7,0-3.1,0.1-4.4,0.4c-1.3,0.3-2.4,0.6-3.3,1.1c-0.9,0.5-1.7,1-2.3,1.6c-0.6,0.6-1.1,1.3-1.5,2
	c-0.4,0.7-0.6,1.4-0.8,2.2c-0.2,0.8-0.2,1.5-0.2,2.3c0,0.8,0.1,1.5,0.2,2.3c0.2,0.8,0.4,1.5,0.8,2.2c0.4,0.7,0.9,1.4,1.5,2
	c0.6,0.6,1.4,1.1,2.3,1.6c0.9,0.5,2,0.8,3.3,1.1c1.3,0.3,2.7,0.4,4.4,0.4c2.5,0,4.5-0.3,6.2-0.9c1.6-0.6,2.9-1.3,3.8-2.2
	c0.9-0.9,1.6-1.9,1.9-3.1C351,35.5,351.2,34.4,351.2,33.3"/>
<path fill="#d6dce2" d="M394,24.5c-0.4-0.1-0.9-0.3-1.5-0.4c-0.6-0.1-1.2-0.2-1.9-0.3c-0.7-0.1-1.4-0.1-2.1-0.1
	c-1.5,0-2.9,0.2-4.2,0.5c-1.3,0.4-2.5,0.9-3.6,1.5c-1.1,0.6-2.2,1.3-3.1,2.1c-1,0.8-1.8,1.6-2.7,2.4v18.5h-8.3V17.9h8.3v5
	c1-0.7,2-1.5,3.1-2.2c1.1-0.7,2.1-1.3,3.3-1.8c1.1-0.5,2.3-1,3.6-1.3c1.3-0.3,2.6-0.5,4-0.5c0.5,0,1.1,0,1.6,0.1
	c0.6,0.1,1.1,0.1,1.6,0.2c0.5,0.1,1,0.2,1.5,0.2c0.5,0.1,0.9,0.2,1.2,0.3v7C394.7,24.7,394.4,24.6,394,24.5"/>
<polygon fill="#d6dce2" points="420.1,32.8 434.7,48.6 424.8,48.6 415.1,38.2 405.6,48.6 395.6,48.6 410.2,32.8 396.3,17.9 
	406.3,17.9 415.1,27.5 424,17.9 434,17.9 "/>
<path fill="#d6dce2" d="M205,30.2c5.9-9.4,13-17,20.6-22c1.5-1,3.6-1.2,5.8-0.6c2.2,0.6,4.4,2.1,6,4.1c7.8,9.6,12.3,21.9,12.4,34.8
	c0.5,0.7,0.8-0.3,0.7-3.2c-0.3-7.6-2.2-15-5.3-21.7c-3.1-6.7-7.5-12.8-12.8-17.7c-1.9-1.7-4.3-2.8-6.7-3.1c-2.4-0.2-4.7,0.4-6.1,1.6
	c-8.4,7-15.9,17.1-21.6,29.1c-1,2.2-0.8,3,0.3,2.7c1.1-0.3,3.1-1.7,6-3.5C204.5,30.5,204.8,30.3,205,30.2"/>
<path fill="#BCBEC0" d="M197.3,50.8c10.1,3.7,22.2,5.1,34.9,3.7c2.3-0.3,2.8-0.9,2-1.7c-0.8-0.8-3-1.9-6-3.4
	c-0.2-0.1-0.5-0.2-0.7-0.4c-10.7-0.2-20.6-2.5-28.6-6.6c-1.6-0.8-2.9-2.6-3.5-4.9c-0.6-2.3-0.6-5,0.2-7.5c3.8-12,11.6-22.6,22-29.6
	c0.3-0.8-0.7-0.5-3,1.1c-6.1,4.4-11.1,9.9-15,16.3c-3.9,6.3-6.6,13.5-7.8,20.8c-0.5,2.6-0.1,5.4,1,7.6
	C193.9,48.4,195.5,50.1,197.3,50.8 M235.5,13.5c-1.3-1.9-2.1-2.1-2.5-1c-0.4,1.1-0.5,7.4-0.5,7.7c4.6,9.7,6.9,19.6,6.8,28.6
	c0,1.7-1,3.7-2.8,5.3c-1.7,1.6-4.2,2.7-6.8,3.1c-12.5,1.9-25.4-0.3-36.2-6.6c-0.8,0.1-0.2,0.9,2.3,2.2c6.6,3.5,13.8,5.6,21.2,6.2
	c7.4,0.7,15-0.1,22.1-2.2c2.5-0.8,4.8-2.3,6.4-4.2c1.6-1.9,2.3-4.2,2.1-6.1C246.5,35.7,242.4,24.3,235.5,13.5"/>
</svg>
