<svg xmlns="http://www.w3.org/2000/svg" width="auto" height="43" viewBox="0 0 434.7 59.2"><path fill="#d6dce2" d="M29.3 42.8H12.2l-2.9 5.8H0l16.1-30.8h9.3l16.1 30.8h-9.3l-2.9-5.8zm-14.2-6h11.2l-5.6-11.3-5.6 11.3zM65.8 17.1c3 0 5.8.3 8.4.8 2.6.5 5 1.2 7.1 2v7.5c-.9-.5-1.8-.9-2.9-1.4-1.1-.4-2.2-.8-3.5-1.2-1.3-.3-2.6-.6-4-.8-1.4-.2-2.9-.3-4.5-.3-2 0-3.7.1-5.1.4-1.5.3-2.7.7-3.8 1.1-1 .5-1.9 1-2.6 1.7-.7.6-1.2 1.3-1.6 2-.4.7-.7 1.4-.8 2.2-.1.7-.2 1.5-.2 2.2 0 .6.1 1.3.2 2s.4 1.4.7 2.1c.4.7.8 1.4 1.5 2.1.6.7 1.4 1.2 2.5 1.7 1 .5 2.2.9 3.6 1.2 1.4.3 3.1.5 5.1.5 1 0 1.8 0 2.6-.1.7-.1 1.4-.1 2-.2.6-.1 1.2-.2 1.7-.4.5-.1 1.1-.3 1.6-.5V38h-9.3v-6.7h17.6V47c-1.1.4-2.3.7-3.7 1-1.4.3-2.8.6-4.2.8-1.5.2-2.9.4-4.4.5-1.5.1-2.8.2-4.1.2-2 0-3.9-.1-5.8-.4-1.9-.3-3.6-.7-5.2-1.2-1.6-.6-3.1-1.3-4.4-2.1-1.3-.9-2.4-1.9-3.4-3.1-.9-1.2-1.7-2.6-2.2-4.1-.5-1.5-.8-3.3-.8-5.2 0-1.9.3-3.6.8-5.2s1.3-2.9 2.2-4.1c1-1.2 2.1-2.2 3.5-3.1 1.4-.9 2.8-1.6 4.5-2.1 1.6-.6 3.4-1 5.2-1.2 1.9-.5 3.8-.6 5.7-.6M90.6 17.9h8.3v30.8h-8.3zM116.4 35.4c0 1.3.1 2.3.4 3.1.2.8.6 1.5 1.2 1.9.5.5 1.2.8 2.1 1 .9.2 1.9.3 3.2.3h15.8v6.8h-17.5c-2.4 0-4.5-.2-6.2-.6-1.7-.4-3.1-1-4.2-1.8s-1.9-1.9-2.3-3.1c-.5-1.3-.7-2.8-.7-4.5V17.9h8.3v17.5zM179.2 47.1c-2.5.8-5 1.4-7.6 1.8-2.5.4-5.1.5-7.7.5-3.4 0-6.3-.4-9-1.1-2.6-.7-4.8-1.8-6.6-3.1-1.8-1.4-3.2-3.1-4.1-5-.9-2-1.4-4.2-1.4-6.7 0-2.3.5-4.5 1.4-6.5.9-2 2.3-3.7 4-5.2 1.7-1.5 3.8-2.6 6.3-3.4 2.5-.8 5.2-1.2 8.2-1.2 2.8 0 5.3.4 7.7 1.1 2.3.8 4.3 1.9 6 3.3 1.7 1.5 3 3.3 3.9 5.5.9 2.2 1.4 4.7 1.4 7.5v2.1h-30.3c.3 1 .7 1.9 1.3 2.7.6.8 1.5 1.5 2.5 2.1 1.1.6 2.4 1 3.9 1.3 1.5.3 3.4.5 5.5.5 1.5 0 3-.1 4.5-.3 1.5-.2 2.8-.4 4.1-.7 1.3-.3 2.4-.6 3.4-1s1.8-.7 2.5-1.1v6.9zm-5.8-16.6c-.1-.8-.3-1.5-.7-2.4-.4-.8-1-1.5-1.8-2.2-.8-.7-1.9-1.2-3.2-1.6-1.3-.4-3-.6-5-.6-1.9 0-3.5.2-4.8.7-1.4.5-2.5 1-3.4 1.7-.9.7-1.6 1.4-2.1 2.2-.5.8-.8 1.5-1 2.2h22zM290.2 17.9l7.8 21.3 8.5-21.3h8.7l-12.4 30.7h-9.2l-8.1-20.7-8 20.7h-9.2l-12.4-30.7h8.7l8.3 20.9 8-20.9M359.6 33.3c0 2.6-.5 5-1.5 7s-2.4 3.7-4.2 5.1c-1.8 1.4-4 2.4-6.6 3.1-2.6.7-5.5 1-8.7 1-3.2 0-6.1-.3-8.7-1-2.6-.7-4.8-1.7-6.6-3.1-1.8-1.4-3.2-3-4.2-5.1-1-2-1.5-4.4-1.5-7 0-2.6.5-5 1.5-7s2.4-3.7 4.2-5.1c1.8-1.4 4-2.4 6.6-3.1 2.6-.7 5.5-1 8.7-1 3.2 0 6.1.3 8.7 1 2.6.7 4.8 1.7 6.6 3.1 1.8 1.4 3.2 3 4.2 5.1 1 2 1.5 4.3 1.5 7m-8.4 0c0-1.1-.2-2.3-.5-3.4-.4-1.1-1-2.2-1.9-3.1-.9-.9-2.2-1.6-3.8-2.2-1.6-.6-3.7-.9-6.2-.9-1.7 0-3.1.1-4.4.4-1.3.3-2.4.6-3.3 1.1-.9.5-1.7 1-2.3 1.6-.6.6-1.1 1.3-1.5 2-.4.7-.6 1.4-.8 2.2-.2.8-.2 1.5-.2 2.3 0 .8.1 1.5.2 2.3.2.8.4 1.5.8 2.2.4.7.9 1.4 1.5 2 .6.6 1.4 1.1 2.3 1.6.9.5 2 .8 3.3 1.1 1.3.3 2.7.4 4.4.4 2.5 0 4.5-.3 6.2-.9 1.6-.6 2.9-1.3 3.8-2.2.9-.9 1.6-1.9 1.9-3.1.3-1.2.5-2.3.5-3.4M394 24.5c-.4-.1-.9-.3-1.5-.4-.6-.1-1.2-.2-1.9-.3-.7-.1-1.4-.1-2.1-.1-1.5 0-2.9.2-4.2.5-1.3.4-2.5.9-3.6 1.5s-2.2 1.3-3.1 2.1c-1 .8-1.8 1.6-2.7 2.4v18.5h-8.3V17.9h8.3v5c1-.7 2-1.5 3.1-2.2 1.1-.7 2.1-1.3 3.3-1.8 1.1-.5 2.3-1 3.6-1.3 1.3-.3 2.6-.5 4-.5.5 0 1.1 0 1.6.1.6.1 1.1.1 1.6.2s1 .2 1.5.2c.5.1.9.2 1.2.3v7c-.1-.2-.4-.3-.8-.4M420.1 32.8l14.6 15.8h-9.9l-9.7-10.4-9.5 10.4h-10l14.6-15.8-13.9-14.9h10l8.8 9.6 8.9-9.6h10M205 30.2c5.9-9.4 13-17 20.6-22 1.5-1 3.6-1.2 5.8-.6 2.2.6 4.4 2.1 6 4.1 7.8 9.6 12.3 21.9 12.4 34.8.5.7.8-.3.7-3.2-.3-7.6-2.2-15-5.3-21.7-3.1-6.7-7.5-12.8-12.8-17.7-1.9-1.7-4.3-2.8-6.7-3.1-2.4-.2-4.7.4-6.1 1.6-8.4 7-15.9 17.1-21.6 29.1-1 2.2-.8 3 .3 2.7 1.1-.3 3.1-1.7 6-3.5.2-.2.5-.4.7-.5"/><path fill="#BCBEC0" d="M197.3 50.8c10.1 3.7 22.2 5.1 34.9 3.7 2.3-.3 2.8-.9 2-1.7-.8-.8-3-1.9-6-3.4-.2-.1-.5-.2-.7-.4-10.7-.2-20.6-2.5-28.6-6.6-1.6-.8-2.9-2.6-3.5-4.9-.6-2.3-.6-5 .2-7.5 3.8-12 11.6-22.6 22-29.6.3-.8-.7-.5-3 1.1-6.1 4.4-11.1 9.9-15 16.3-3.9 6.3-6.6 13.5-7.8 20.8-.5 2.6-.1 5.4 1 7.6 1.1 2.2 2.7 3.9 4.5 4.6m38.2-37.3c-1.3-1.9-2.1-2.1-2.5-1-.4 1.1-.5 7.4-.5 7.7 4.6 9.7 6.9 19.6 6.8 28.6 0 1.7-1 3.7-2.8 5.3-1.7 1.6-4.2 2.7-6.8 3.1-12.5 1.9-25.4-.3-36.2-6.6-.8.1-.2.9 2.3 2.2 6.6 3.5 13.8 5.6 21.2 6.2 7.4.7 15-.1 22.1-2.2 2.5-.8 4.8-2.3 6.4-4.2 1.6-1.9 2.3-4.2 2.1-6.1-1.1-10.8-5.2-22.2-12.1-33"/></svg>